<svg id="a8984d5b-6788-41c3-8264-f4db562813ca" data-name="9d9d6abe-c7ba-463e-9531-fe9bb4e54667" xmlns="http://www.w3.org/2000/svg" width="142" height="118" viewBox="0 0 142 118">
  <title>ENG_header_logo</title>
  <g>
    <polygon points="58.863 10.022 60.632 10.022 60.632 0.187 57.626 0.187 57.626 1.863 58.863 1.863 58.863 10.022" style="fill: #005551"/>
    <path d="M62.49552,6.97389a3.27193,3.27193,0,0,0,6.54255.10633,2.65051,2.65051,0,0,0-1.42266-2.52868,2.28266,2.28266,0,0,0,.79738-1.85017A2.66022,2.66022,0,0,0,65.794.00032Q65.77336,0,65.75268,0a2.61851,2.61851,0,0,0-2.60887,2.62812q0.00021,0.05666.00287,0.11326a2.2047,2.2047,0,0,0,.79785,1.81016,2.61128,2.61128,0,0,0-1.449,2.42235m3.29714-5.24371a1.02189,1.02189,0,0,1,1.02444,1.0112,1.0364,1.0364,0,0,1-1.02444,1.038,1.05961,1.05961,0,0,1-1.05031-1.038,1.04553,1.04553,0,0,1,1.05031-1.0112M65.76633,5.51a1.51054,1.51054,0,0,1,1.50291,1.51812l-0.00034.02527a1.50289,1.50289,0,1,1-1.52815-1.543L65.76633,5.51" transform="translate(0 0)" style="fill: #005551"/>
    <path d="M73.57033,10.26052A3.42943,3.42943,0,0,0,76.962,6.79377l-0.00053-.03314a3.25761,3.25761,0,0,0-.86365-2.34235,2.85931,2.85931,0,0,0-2.0348-.93166l-0.49272.04L75.765,0.18625H73.678l-2.80632,4.2852a4.09115,4.09115,0,0,0-.71885,2.276,3.40612,3.40612,0,0,0,3.29748,3.5114q0.06,0.00188.12,0.00165m-0.02585-5.1369a1.69616,1.69616,0,0,1,1.64834,1.74265l0,0.00074a1.63723,1.63723,0,0,1-3.274.053q-0.00108-.06634.00323-0.1326a1.62232,1.62232,0,0,1,1.58027-1.66331q0.0211-.00054.04221-0.00053" transform="translate(0 0)" style="fill: #005551"/>
    <path d="M81.19645,1.72985a1.37771,1.37771,0,0,1,1.41091,1.34369q0.00114,0.04691-.00091.09382a2.84455,2.84455,0,0,1-1.197,2.02284L78.01778,8.34471v1.677H84.3737v-1.677H80.49123l1.87493-1.67653,1.237-1.30481a3.4167,3.4167,0,0,0,.77057-2.116A3.23066,3.23066,0,1,0,77.91247,3.221V3.5805h1.76776a1.56607,1.56607,0,0,1,1.51623-1.85064" transform="translate(0 0)" style="fill: #005551"/>
    <path d="M78.24782,55.08579L79.4072,51.186,77.02967,40.79689l9.14012-9.14731H74.93611L73.77579,26.5814a3.36234,3.36234,0,0,0,.76163-2.1146,3.5383,3.5383,0,0,0-7.07429,0,3.361,3.361,0,0,0,.76163,2.11413l-1.16033,5.06866H55.83077l9.14011,9.14825L62.59336,51.186l1.15938,3.89984,2.88764-12.61707,4.3592,4.36333,4.36061-4.36427ZM81.3409,33.65126L76.50216,38.4936,75.394,33.65126h5.9469Zm-15.843,4.84327-4.83874-4.84327h5.94735ZM71,22.9573a1.51022,1.51022,0,1,1-1.54867,1.5095A1.52956,1.52956,0,0,1,71,22.9573m-0.99342,4.80328a3.26658,3.26658,0,0,0,1.98732,0l0.89,3.889H69.11664Zm0.993,16.24022-3.83216-3.83536,1.49083-6.51417H73.3423l1.49037,6.51322Z" transform="translate(0 0)" style="fill: #005551"/>
    <path d="M20.29917,63.257H17.03965l2.3164-1.47656L28.21127,61.781V52.85529l7.21863,3.16956v10.63l4.13164-.00236,2.8016,2.80348H52.105l0.00283-6.19748h-5.567l-0.84623-3.6119,2.33194-6.62144L39.92215,44.914l-8.53034.0033,6.8223-4.345,14.12742,3.18743v12.945L70.99976,67.07126,89.65847,56.70478v-12.945l14.12744-3.18743,6.82182,4.345-8.52986-.0033-8.10439,8.11118,2.33145,6.62144-0.84626,3.61188H89.89214L89.895,69.456h9.74191l2.80114-2.80348,4.13212,0.00236v-10.63l7.21863-3.16956V61.781l8.8552-.00047,2.31641,1.47656h-3.25955v6.19985H133.6313V55.03578h-9.86461V51.01643a4.759,4.759,0,0,0,1.52046.25927,4.70442,4.70442,0,0,0,3.567-7.76768l-0.00517-.00895c-0.70427-.855-5.6192-6.36124-5.6192-6.36124a5.59928,5.59928,0,0,1,3.07569-9.16988,0.87107,0.87107,0,0,1,1.04044.93213,0.89652,0.89652,0,0,1-.33993.70722l-0.01222.00518-0.023.02352a4.66841,4.66841,0,1,0,5.65869,7.40442l-0.02541-.01458a1.43087,1.43087,0,0,1-.34463.02681,1.79231,1.79231,0,0,1-1.30653-3.0171l0.00661-.01506a7.47657,7.47657,0,0,0,1.10107-1.30715,4.61115,4.61115,0,0,0-2.23274-6.51746,6.06669,6.06669,0,0,0-1.39116-.3402A7.6554,7.6554,0,0,0,121.42155,38.182c0.03716,0.06682,5.18432,5.84175,5.83264,6.63085l0.01177,0.01176,0.008,0.01035a2.63758,2.63758,0,1,1-4.245,3.097l-0.00987-.01269-6.3794-12.40721a7.13577,7.13577,0,0,0-1.095-9.04191,2.5064,2.5064,0,0,0,2.21018-2.4741h0.00092l0.01647-1.40362a0.99813,0.99813,0,0,0-.98689-1.00924q-0.00679-.00007-0.01358-0.00006l-2.40718-.00378a0.49618,0.49618,0,0,1-.00128-0.99236h0.00128l4.6761-.00376a2.74841,2.74841,0,0,0,2.747-2.74982V17.833L121.785,14.742H110.69377a4.35858,4.35858,0,0,0-4.02117-6.02574,0.99856,0.99856,0,0,0-1.00047.98954c-0.00423.3929-.00659,0.89873-0.00659,1.46009,0,1.1467.008,2.52021,0.01082,3.5794-0.54678-.00424-1.34085.00847-1.34085,0.00847A12.62054,12.62054,0,0,0,92.96407,31.64992h-3.3056V14.76128H52.34153V31.64992H49.03594A12.62053,12.62053,0,0,0,37.6645,14.75376s-0.79408-.01271-1.34085-0.00847c0.00281-1.05919.0108-2.4327,0.0108-3.5794,0-.56135-0.00235-1.06719-0.007-1.46009a0.99847,0.99847,0,0,0-1-.98954,4.35855,4.35855,0,0,0-4.0212,6.02574H20.215l-0.00283,3.091a2.74834,2.74834,0,0,0,2.74637,2.75031h0.00023L27.63534,20.587a0.49618,0.49618,0,0,1,0,.99236l-2.40762.00378a0.99731,0.99731,0,0,0-1.00007.99454q0,0.00738.00007,0.01476l0.016,1.40362h0.00141a2.50639,2.50639,0,0,0,2.21015,2.4741,7.13571,7.13571,0,0,0-1.095,9.04191L18.98041,47.91933,18.971,47.932a2.63735,2.63735,0,1,1-4.24495-3.0971l0.00753-.01035,0.01221-.01176c0.64835-.7891,5.795-6.564,5.83264-6.63085a7.64742,7.64742,0,0,0-7.015-12.32628,6.065,6.065,0,0,0-1.39163.3402,4.61031,4.61031,0,0,0-2.23226,6.51746,7.44861,7.44861,0,0,0,1.10109,1.30715l0.00659,0.01506a1.79267,1.79267,0,0,1-1.30655,3.0171A1.43075,1.43075,0,0,1,9.396,37.02585l-0.02585.01458A4.6681,4.6681,0,1,0,15.02883,29.636l-0.02257-.02352-0.0127-.00518a0.89947,0.89947,0,0,1-.33991-0.70722,0.87154,0.87154,0,0,1,1.0409-.93213,5.599,5.599,0,0,1,3.07524,9.16988s-4.91492,5.50628-5.61873,6.36124l-0.00517.00895a4.70442,4.70442,0,0,0,3.56653,7.76768,4.762,4.762,0,0,0,1.52093-.25927v4.01935H8.36873V69.45691H20.29917V63.257ZM128.03606,31.408l0.06113-.03247a2.97257,2.97257,0,0,0,1.245-3.10415,2.60423,2.60423,0,0,1,.50072.37831,2.556,2.556,0,0,1-.0013,3.61473q-0.08356.0835-.17456,0.159V32.424a3.153,3.153,0,0,0-1.418,2.27741,2.12186,2.12186,0,0,0,.30322,1.2267,2.59779,2.59779,0,0,1-.5162-4.52M113.78874,50.599l-9.284,4.07536v9.91429l-2.83546.00188-2.79643,2.79925H91.958V65.32461h5.13683L98.447,59.55014l-2.11143-5.95845-0.02633-.07341,6.53645-6.54192,10.94313,0.00046V50.599h0Zm7.91207-.69827v7.20162h9.8651V67.39028h-7.79925V65.32367h5.04279v-2.0652L123.25,59.71577l-7.39683-.00141V45.80847l-9.23648-5.88221c1.84109-.423,3.44759-0.79428,4.55807-1.05966,0.76633-.1835,1.65256-0.40937,1.65256-0.40937a7.13671,7.13671,0,0,0,2.34227-1.28928Zm-14.031-38.95557a2.31739,2.31739,0,0,1,.66619.463,2.35515,2.35515,0,0,1,.00075,3.33068l-0.00075.00074a2.42545,2.42545,0,0,1-.66619.4569c-0.00235-1.10154,0-4.25133,0-4.25133m-0.395,6.92684a3.87436,3.87436,0,0,1,2.50259-1.12835h10.01787l-0.00706,1.08459V17.833a0.74983,0.74983,0,0,1-.74752.74863H119.0398l-4.73954.00234v0.00988a2.53525,2.53525,0,0,0-2.426,2.52727,2.39434,2.39434,0,0,0,.67843,1.70759,2.55784,2.55784,0,0,0,1.40054.69452,2.65309,2.65309,0,0,0,.34274.01883l1.46921-.00376-0.00376.44653a0.52138,0.52138,0,0,1-.52.51948h-0.001c-0.00281,0-5.29384.00847-5.45651,0.00895a3.89463,3.89463,0,0,1-2.50917-6.64121m-2.79643.81545a5.79,5.79,0,0,0-.33851,1.94052,5.8917,5.8917,0,0,0,5.275,5.861,1.01334,1.01334,0,0,0,.205.02164c0.03855,0,.92384-0.00141,1.17113-0.00188a5.14751,5.14751,0,0,1,1.45839,10.02957,11.18427,11.18427,0,0,1-2.94829.464,9.79273,9.79273,0,0,1-4.82276-18.31485M97.32,19.85158a10.56237,10.56237,0,0,1,6.4443-3.05568,11.79421,11.79421,0,0,0-3.16643,18.3586l-0.04138-.03482-2.3244.5209s-0.70757-.57313-0.91209-0.77781a10.62093,10.62093,0,0,1,0-15.01118M89.65847,33.581h4.198a12.65524,12.65524,0,0,0,1.95392,2.59644l-6.15186,1.38527V33.581Zm0,6.03469,12.73345-2.85759a11.70215,11.70215,0,0,0,2.04936,1.1947l0.709,0.25927L89.65847,41.70914V39.61569ZM54.34436,16.74413H87.65564v38.742l-16.65541,9.224H70.99976l-16.65541-9.224v-38.742ZM15.057,33.52643a2.57929,2.57929,0,0,1-1.60931,2.40164,2.12534,2.12534,0,0,0,.30324-1.2267A3.15376,3.15376,0,0,0,12.33254,32.424V32.42349a2.557,2.557,0,0,1-.33343-3.60074q0.0748-.09007.1576-0.173a2.6177,2.6177,0,0,1,.50071-0.37831,2.97588,2.97588,0,0,0,1.24541,3.10415l0.06066,0.03247A2.59469,2.59469,0,0,1,15.057,33.52643M39.1544,46.97637l6.536,6.54192-0.02587.07341L43.5531,59.55015l1.35167,5.77447h5.13682v2.06521H43.12713L40.3307,64.59057l-2.83544-.00188V54.6744l-9.284-4.07536V46.97683Zm13.18713-5.26723L36.84974,38.21208l0.709-.25927a11.70208,11.70208,0,0,0,2.04937-1.1947L52.34153,39.6157v2.09344Zm0-8.12812v3.98172l-6.15234-1.38527A12.641,12.641,0,0,0,48.1436,33.581h4.19793v0ZM44.68,19.85158a10.62094,10.62094,0,0,1,0,15.01118c-0.20451.20468-.91209,0.77781-0.91209,0.77781l-2.3244-.5209-0.04136.03482a11.79132,11.79132,0,0,0-3.16644-18.3586A10.56356,10.56356,0,0,1,44.68,19.85158M33.66355,11.40821a2.31978,2.31978,0,0,1,.66667-0.463s0.00235,3.1498,0,4.25133a2.42819,2.42819,0,0,1-.66667-0.4569,2.35632,2.35632,0,0,1,0-3.33143m-7.425,12.5766-0.00423-.44653L27.7035,23.542a2.6496,2.6496,0,0,0,.34274-0.01883,2.55923,2.55923,0,0,0,1.401-.69452,2.39822,2.39822,0,0,0,.67842-1.70759,2.53523,2.53523,0,0,0-2.426-2.52727V18.58395l-4.73954-.00234H22.9588a0.74976,0.74976,0,0,1-.74707-0.74863V17.82827l-0.007-1.08459H32.22255a3.89238,3.89238,0,0,1-.00657,7.76956c-0.16267-.00047-5.4537-0.00895-5.45653-0.00895H26.758a0.521,0.521,0,0,1-.51952-0.51948m1.49413,4.02406a5.1205,5.1205,0,0,1,3.47627-1.50008c0.2473,0.00047,1.13258.00188,1.17113,0.00188a1.0132,1.0132,0,0,0,.205-0.02164,5.89243,5.89243,0,0,0,5.275-5.861,5.78994,5.78994,0,0,0-.33849-1.94052,9.79428,9.79428,0,0,1-4.82277,18.31485,11.18715,11.18715,0,0,1-2.94875-.464,5.15194,5.15194,0,0,1-2.01739-8.52949m-9.4993,39.3814H10.43409V57.10239h9.86508V49.90077L26.83044,37.168a7.132,7.132,0,0,0,2.34227,1.28928s0.88623,0.22586,1.65257.40937c1.11049,0.26538,2.717.63664,4.55807,1.05966l-9.237,5.88221V59.71436l-7.39682.00141L13.19,63.25848v2.06519h5.04327v2.0666Z" transform="translate(0 0)" style="fill: #005551"/>
  </g>
  <g>
    <g>
      <polygon points="101.339 107.789 104.587 107.789 104.587 117.729 106.833 117.729 106.833 107.789 110.114 107.789 110.114 105.609 101.339 105.609 101.339 107.789" style="fill: #005551"/>
      <polygon points="71.598 107.789 71.598 105.609 63.592 105.609 63.592 117.729 71.598 117.729 71.598 115.546 65.838 115.546 65.838 112.76 70.777 112.76 70.777 110.578 65.838 110.578 65.838 107.789 71.598 107.789" style="fill: #005551"/>
      <polygon points="42.799 105.609 40.552 105.609 40.552 114.465 35.503 105.609 32.977 105.609 32.977 117.729 35.224 117.729 35.224 108.905 40.307 117.729 42.799 117.729 42.799 105.609" style="fill: #005551"/>
      <path d="M94.73543,114.247a3.23447,3.23447,0,0,0-2.79987-3.40241l-2.09629-.51641c-0.962-.25707-1.78734-0.65216-1.78734-1.51133,0-1.09956.96244-1.54651,1.95918-1.54651a2.68141,2.68141,0,0,1,2.55091,1.28222l1.4996-1.4987a4.30234,4.30234,0,0,0-3.86109-1.70752c-2.3714,0-4.3811,1.3404-4.3811,3.64235,0,2.1653,1.30523,2.9036,2.93742,3.31537l2.062,0.49837c0.94486,0.276,1.68316.68779,1.68316,1.59927,0,1.13294-1.16766,1.61371-2.40433,1.61371a3.07187,3.07187,0,0,1-2.73-1.40489l-1.62092,1.62092a5.33874,5.33874,0,0,0,4.28148,1.7594c2.69748,0,4.70719-1.49419,4.70719-3.74383" transform="translate(0 0)" style="fill: #005551"/>
      <path d="M83.38628,109.27578c0-2.35066-1.5659-3.64551-4.41-3.64551H74.56274v12.11858h2.24062v-4.90833h0.88578l0.03338,0.04239,3.56206,4.86594h2.7011l-3.84124-5.00169c2.03946-.34051,3.24185-1.61417,3.24185-3.47142M76.80338,110.917v-3.24h2.12786c1.42248,0,2.14364.538,2.14364,1.59883,0,1.08918-.72116,1.64122-2.14364,1.64122H76.80336Z" transform="translate(0 0)" style="fill: #005551"/>
      <path d="M29.93064,112.89364c0,3.36183-2.14546,5.073-5.238,5.073-3.09211,0-5.238-1.71112-5.238-5.073V105.5882h2.43229v7.18365a2.5565,2.5565,0,0,0,2.80573,2.87518,2.55632,2.55632,0,0,0,2.80573-2.87518v-7.18367h2.43229v7.30544Z" transform="translate(0 0)" style="fill: #005551"/>
      <rect x="45.84588" y="105.58811" width="2.42372" height="12.16145" style="fill: #005551"/>
      <polygon points="57.173 117.75 54.228 117.75 49.659 105.588 52.239 105.588 55.723 115.292 59.223 105.588 61.743 105.588 57.173 117.75" style="fill: #005551"/>
      <rect x="97.01285" y="105.58811" width="2.42372" height="12.16145" style="fill: #005551"/>
      <polygon points="117.969 112.9 117.969 117.758 115.568 117.758 115.568 112.892 110.932 105.605 113.753 105.605 116.782 110.715 119.81 105.605 122.545 105.605 117.969 112.9" style="fill: #005551"/>
    </g>
    <rect x="11.44924" y="82.78327" width="2.24241" height="12.092" style="fill: #005551"/>
    <polygon points="46.448 84.959 49.688 84.959 49.688 94.876 51.929 94.876 51.929 84.959 55.203 84.959 55.203 82.783 46.448 82.783 46.448 84.959" style="fill: #005551"/>
    <polygon points="57.518 94.876 65.506 94.876 65.506 92.697 59.759 92.697 59.759 89.918 64.687 89.918 64.687 87.742 59.759 87.742 59.759 84.959 65.506 84.959 65.506 82.783 57.518 82.783 57.518 94.876" style="fill: #005551"/>
    <polygon points="87.08 87.59 82.196 87.59 82.196 82.748 79.954 82.748 79.954 94.84 82.196 94.84 82.196 89.767 87.08 89.767 87.08 94.84 89.321 94.84 89.321 82.748 87.08 82.748 87.08 87.59" style="fill: #005551"/>
    <polygon points="94.446 86.037 99.517 94.84 102.004 94.84 102.004 82.748 99.763 82.748 99.763 91.584 94.724 82.748 92.205 82.748 92.205 94.84 94.446 94.84 94.446 86.037" style="fill: #005551"/>
    <rect x="104.87033" y="82.74809" width="2.24061" height="12.09155" style="fill: #005551"/>
    <path d="M124.85883,82.85975l-4.101,12.05051h2.18559l0.672-1.97587h5.3679l0.65848,1.97587h2.18108l-4.01265-12.05051h-2.95139Zm-0.53893,8.00541,2.0101-5.9046,1.965,5.90461h-3.9751Z" transform="translate(0 0)" style="fill: #005551"/>
    <path d="M33.30565,82.82485l-4.101,12.051h2.18423l0.67382-1.97813h5.36881l0.65709,1.97813h2.17973l-4.00991-12.051H33.30565Zm-0.53849,8.00586,2.00833-5.906,1.96641,5.906H32.76716Z" transform="translate(0 0)" style="fill: #005551"/>
    <path d="M22.18267,89.97879h3.9125a4.05158,4.05158,0,1,1-.91735-3.75645l1.46037-1.46127a6.11176,6.11176,0,1,0,1.66377,4.184V87.90956H22.18267v2.06923Z" transform="translate(0 0)" style="fill: #005551"/>
    <path d="M8.80325,86.42155c0-2.34479-1.56274-3.63739-4.4-3.63739H0v12.0911H2.23521v-4.8966h0.884l0.03292,0.04194L6.7065,94.87526H9.40128L5.56861,89.88575c2.035-.34006,3.23463-1.611,3.23463-3.4642m-6.568,1.63761V84.82678H4.3581c1.41933,0,2.13869.5367,2.13869,1.59477,0,1.08693-.71936,1.63761-2.13869,1.63761H2.23524Z" transform="translate(0 0)" style="fill: #005551"/>
    <polygon points="135.612 92.589 135.612 82.757 133.371 82.757 133.371 94.841 142 94.841 142 92.589 135.612 92.589" style="fill: #005551"/>
    <path d="M78.16189,92.4772l-1.685-1.2078a4.04654,4.04654,0,1,1-.31164-5.04724l1.46084-1.46131a6.11643,6.11643,0,1,0,.53581,7.71631" transform="translate(0 0)" style="fill: #005551"/>
    <path d="M117.97681,91.80894a4.05284,4.05284,0,1,1-.00752-5.73158q0.07093,0.07075.13831,0.14494l1.46082-1.46172a6.11668,6.11668,0,1,0,.53579,7.71676l-1.685-1.20781a3.99732,3.99732,0,0,1-.44242.53941" transform="translate(0 0)" style="fill: #005551"/>
  </g>
</svg>
